<svg xmlns="http://www.w3.org/2000/svg" xmlns:xlink="http://www.w3.org/1999/xlink" version="1.1" width="256" height="256" viewBox="0 0 256 256" xml:space="preserve">

<defs>
</defs>
<g style="stroke: none; stroke-width: 0; stroke-dasharray: none; stroke-linecap: butt; stroke-linejoin: miter; stroke-miterlimit: 10; fill: none; fill-rule: nonzero; opacity: 1;" transform="translate(1.4065934065934016 1.4065934065934016) scale(2.81 2.81)" >
	<path d="M 55.151 59.84 h 7.17 V 30.16 h -7.17 V 59.84 z M 42.561 51.378 c 0 1.042 -0.875 1.918 -1.918 1.918 h -4.169 c -1.042 0 -1.918 -0.875 -1.918 -1.918 c 0 -0.417 0 -11.964 0 -11.964 h -7.17 v 12.547 c 0 5.127 3.293 7.837 8.129 7.837 h 7.003 c 4.46 0 7.17 -3.21 7.17 -7.837 V 39.414 h -7.17 C 42.561 39.414 42.561 51.003 42.561 51.378 z M 82.872 39.414 c 0 0 0 11.589 0 11.964 c 0 1.042 -0.875 1.918 -1.918 1.918 h -4.169 c -1.042 0 -1.918 -0.875 -1.918 -1.918 c 0 -0.417 0 -11.964 0 -11.964 h -7.17 v 12.547 c 0 5.127 3.293 7.837 8.129 7.837 h 7.003 c 4.46 0 7.17 -3.21 7.17 -7.837 V 39.414 H 82.872 z M 14.173 39.414 c 0 0 -3.71 0 -4.585 0 c -1.626 0 -2.418 0.417 -2.418 0.417 V 30.16 H 0 v 29.639 h 7.128 V 47.876 c 0 -1.042 0.875 -1.918 1.918 -1.918 h 4.169 c 1.042 0 1.918 0.875 1.918 1.918 V 59.84 h 7.17 V 46.918 C 22.302 41.498 18.675 39.414 14.173 39.414 z" style="stroke: none; stroke-width: 1; stroke-dasharray: none; stroke-linecap: butt; stroke-linejoin: miter; stroke-miterlimit: 10; fill: rgb(0,0,0); fill-rule: nonzero; opacity: 1;" transform=" matrix(1 0 0 1 0 0) " stroke-linecap="round" />
</g>
</svg>